<svg width="175" height="52" viewBox="0 0 175 52" fill="none" xmlns="http://www.w3.org/2000/svg">
<g opacity="0.9">
<path d="M63.4077 35.4777H59.1436C58.9831 35.4777 58.9029 35.3917 58.9029 35.2198V23.4418C58.9029 23.2698 58.9831 23.1839 59.1436 23.1839H63.4077C64.8635 23.1839 65.9983 23.5736 66.8122 24.3531C67.6375 25.1211 68.0501 26.2444 68.0501 27.7231V30.99C68.0501 32.4458 67.6375 33.5577 66.8122 34.3257C65.9983 35.0937 64.8635 35.4777 63.4077 35.4777ZM60.9833 25.0924V33.5347H63.4077C65.0698 33.5347 65.9009 32.6922 65.9009 31.0072V27.7059C65.9009 25.9636 65.0698 25.0924 63.4077 25.0924H60.9833Z" fill="#616161"/>
<path d="M70.0765 27.2761C70.9591 26.6686 72.0825 26.3648 73.4466 26.3648C74.5584 26.3648 75.4296 26.6571 76.0601 27.2417C76.702 27.8148 77.0229 28.686 77.0229 29.8552V34.8759C77.0229 35.0134 76.9599 35.1109 76.8338 35.1682C75.7219 35.5121 74.5699 35.684 73.3778 35.684C72.2659 35.684 71.3489 35.4548 70.6267 34.9963C69.9046 34.5377 69.5435 33.8099 69.5435 32.8126C69.5435 31.907 69.8816 31.225 70.5579 30.7665C71.2457 30.2965 72.1627 30.0615 73.309 30.0615C73.7675 30.0615 74.3407 30.1074 75.0284 30.1991V29.8724C75.0284 29.2534 74.8966 28.8121 74.633 28.5484C74.3808 28.2733 73.9395 28.1358 73.309 28.1358C72.4608 28.1358 71.7271 28.3192 71.1082 28.686C70.9706 28.7892 70.856 28.7662 70.7643 28.6172L70.0765 27.5684C69.9963 27.4423 69.9963 27.3449 70.0765 27.2761ZM71.5552 32.7954C71.5552 33.1851 71.7214 33.4774 72.0538 33.6723C72.3862 33.8557 72.8276 33.9474 73.3778 33.9474C73.9051 33.9474 74.4553 33.8786 75.0284 33.7411V31.7981C74.4094 31.7064 73.8535 31.6606 73.3606 31.6606C72.157 31.6606 71.5552 32.0389 71.5552 32.7954Z" fill="#616161"/>
<path d="M81.0211 32.3655C81.0211 32.8355 81.1357 33.2023 81.365 33.466C81.6057 33.7296 81.9439 33.8614 82.3795 33.8614C82.4826 33.8614 82.7176 33.85 83.0844 33.827C83.2678 33.827 83.3595 33.9073 83.3595 34.0678V35.3745C83.3595 35.5465 83.2793 35.6382 83.1188 35.6496C82.7291 35.6726 82.4253 35.684 82.2075 35.684C81.2561 35.684 80.4881 35.4261 79.9035 34.9103C79.3189 34.383 79.0266 33.5806 79.0266 32.5031V24.6454C79.0266 24.4849 79.1126 24.4047 79.2845 24.4047H80.5913C80.7403 24.4047 80.8263 24.4792 80.8492 24.6282L81.0039 26.6915H82.8437C83.0156 26.6915 83.1016 26.7717 83.1016 26.9322V28.1874C83.1016 28.3478 83.0156 28.4281 82.8437 28.4281H81.0211V32.3655Z" fill="#616161"/>
<path d="M84.7352 27.2761C85.6178 26.6686 86.7412 26.3648 88.1052 26.3648C89.2171 26.3648 90.0883 26.6571 90.7188 27.2417C91.3607 27.8148 91.6816 28.686 91.6816 29.8552V34.8759C91.6816 35.0134 91.6186 35.1109 91.4925 35.1682C90.3806 35.5121 89.2286 35.684 88.0365 35.684C86.9246 35.684 86.0076 35.4548 85.2854 34.9963C84.5632 34.5377 84.2022 33.8099 84.2022 32.8126C84.2022 31.907 84.5403 31.225 85.2166 30.7665C85.9044 30.2965 86.8214 30.0615 87.9677 30.0615C88.4262 30.0615 88.9993 30.1074 89.6871 30.1991V29.8724C89.6871 29.2534 89.5553 28.8121 89.2916 28.5484C89.0395 28.2733 88.5981 28.1358 87.9677 28.1358C87.1194 28.1358 86.3858 28.3192 85.7668 28.686C85.6293 28.7892 85.5147 28.7662 85.423 28.6172L84.7352 27.5684C84.6549 27.4423 84.6549 27.3449 84.7352 27.2761ZM86.2139 32.7954C86.2139 33.1851 86.3801 33.4774 86.7125 33.6723C87.0449 33.8557 87.4863 33.9474 88.0365 33.9474C88.5638 33.9474 89.114 33.8786 89.6871 33.7411V31.7981C89.0681 31.7064 88.5122 31.6606 88.0193 31.6606C86.8157 31.6606 86.2139 32.0389 86.2139 32.7954Z" fill="#616161"/>
<path d="M101.199 35.4777H94.3043C94.1438 35.4777 94.0636 35.3917 94.0636 35.2198V23.4418C94.0636 23.2698 94.1438 23.1839 94.3043 23.1839H95.9033C96.0638 23.1839 96.144 23.2698 96.144 23.4418V33.5691H101.199C101.371 33.5691 101.457 33.6494 101.457 33.8099V35.2198C101.457 35.3917 101.371 35.4777 101.199 35.4777Z" fill="#616161"/>
<path d="M104.508 35.4777H103.012C102.84 35.4777 102.754 35.3917 102.754 35.2198V26.8118C102.754 26.6514 102.84 26.5711 103.012 26.5711H104.508C104.668 26.5711 104.748 26.6514 104.748 26.8118V35.2198C104.748 35.3917 104.668 35.4777 104.508 35.4777ZM104.559 23.4418C104.777 23.6481 104.886 23.9118 104.886 24.2327C104.886 24.5537 104.777 24.823 104.559 25.0408C104.353 25.2586 104.089 25.3675 103.768 25.3675C103.447 25.3675 103.178 25.2586 102.96 25.0408C102.742 24.823 102.633 24.5537 102.633 24.2327C102.633 23.9118 102.742 23.6481 102.96 23.4418C103.178 23.224 103.447 23.1151 103.768 23.1151C104.089 23.1151 104.353 23.224 104.559 23.4418Z" fill="#616161"/>
<path d="M111.096 24.7657C110.89 24.7313 110.632 24.7141 110.322 24.7141C109.875 24.7141 109.531 24.8574 109.291 25.144C109.05 25.4191 108.93 25.8031 108.93 26.296V26.6915H110.907C111.079 26.6915 111.165 26.7774 111.165 26.9494V28.1874C111.165 28.3593 111.079 28.4453 110.907 28.4453H108.93V35.2198C108.93 35.3917 108.844 35.4777 108.672 35.4777H107.193C107.021 35.4777 106.935 35.3917 106.935 35.2198V26.296C106.935 25.23 107.222 24.4104 107.795 23.8372C108.379 23.2641 109.119 22.9775 110.013 22.9775C110.448 22.9775 110.798 23.0005 111.062 23.0463C111.222 23.0578 111.302 23.1495 111.302 23.3214V24.5078C111.302 24.6798 111.234 24.7657 111.096 24.7657Z" fill="#616161"/>
<path d="M119.63 29.8896V31.6262C119.63 31.7867 119.544 31.8669 119.372 31.8669H114.145V32.3484C114.145 32.8642 114.306 33.2596 114.627 33.5347C114.959 33.7984 115.406 33.9302 115.968 33.9302C116.805 33.9302 117.613 33.6666 118.392 33.1393C118.53 33.0476 118.644 33.0648 118.736 33.1909L119.441 34.1365C119.556 34.2626 119.538 34.383 119.389 34.4976C118.392 35.2886 117.229 35.684 115.899 35.684C114.844 35.684 113.95 35.3974 113.217 34.8243C112.495 34.2397 112.134 33.4087 112.134 32.3312V29.8896C112.134 28.7089 112.5 27.8263 113.234 27.2417C113.968 26.6571 114.862 26.3648 115.916 26.3648C116.959 26.3648 117.836 26.6571 118.547 27.2417C119.269 27.8263 119.63 28.7089 119.63 29.8896ZM117.687 29.8724C117.687 29.2763 117.521 28.835 117.189 28.5484C116.856 28.2619 116.432 28.1186 115.916 28.1186C114.736 28.1186 114.145 28.7032 114.145 29.8724V30.3194H117.687V29.8724Z" fill="#616161"/>
<path d="M126.894 30.182V33.5865H132.414C132.586 33.5865 132.672 33.6667 132.672 33.8272V35.2199C132.672 35.3919 132.586 35.4778 132.414 35.4778H125.054C124.894 35.4778 124.814 35.3919 124.814 35.2199V23.4419C124.814 23.27 124.894 23.184 125.054 23.184H132.173C132.345 23.184 132.431 23.27 132.431 23.4419V24.8347C132.431 24.9951 132.345 25.0754 132.173 25.0754H126.894V28.2907H131.726C131.898 28.2907 131.984 28.3766 131.984 28.5486V29.9241C131.984 30.0961 131.898 30.182 131.726 30.182H126.894Z" fill="#783E33"/>
<path d="M136.281 35.4778H134.803C134.631 35.4778 134.545 35.3919 134.545 35.2199V27.345C134.545 27.196 134.608 27.0928 134.734 27.0355C135.765 26.5885 136.906 26.3649 138.155 26.3649C139.405 26.3649 140.379 26.6802 141.078 27.3106C141.789 27.9296 142.144 28.8982 142.144 30.2164V35.2199C142.144 35.3919 142.064 35.4778 141.904 35.4778H140.408C140.236 35.4778 140.15 35.3919 140.15 35.2199V30.2508C140.15 29.4828 139.984 28.9441 139.651 28.6346C139.319 28.3136 138.82 28.1531 138.155 28.1531C137.559 28.1531 137.021 28.2162 136.539 28.3423V35.2199C136.539 35.3919 136.453 35.4778 136.281 35.4778Z" fill="#783E33"/>
<path d="M151.507 34.9104C151.507 37.5813 150.235 38.9167 147.69 38.9167C146.372 38.9167 145.254 38.5613 144.337 37.8506C144.222 37.7704 144.205 37.6558 144.285 37.5067L145.008 36.4407C145.099 36.2917 145.214 36.2688 145.352 36.3719C146.062 36.8878 146.836 37.1457 147.673 37.1457C148.338 37.1457 148.819 36.9737 149.117 36.6298C149.415 36.286 149.553 35.6899 149.53 34.8416C148.957 35.0938 148.32 35.2199 147.621 35.2199C146.544 35.2199 145.655 34.9162 144.956 34.3086C144.257 33.7011 143.907 32.8185 143.907 31.6607V30.0445C143.907 28.7721 144.268 27.8436 144.99 27.259C145.724 26.663 146.687 26.3649 147.879 26.3649C149.117 26.3649 150.263 26.5885 151.318 27.0355C151.444 27.0814 151.507 27.1788 151.507 27.3278V34.9104ZM145.919 31.6607C145.919 32.8643 146.549 33.4661 147.81 33.4661C148.601 33.4661 149.169 33.3228 149.513 33.0363V28.3423C149.134 28.2162 148.601 28.1531 147.913 28.1531C147.272 28.1531 146.779 28.2964 146.435 28.583C146.091 28.8581 145.919 29.3452 145.919 30.0445V31.6607Z" fill="#783E33"/>
<path d="M155.407 35.4778H153.911C153.739 35.4778 153.653 35.3919 153.653 35.2199V26.812C153.653 26.6515 153.739 26.5713 153.911 26.5713H155.407C155.568 26.5713 155.648 26.6515 155.648 26.812V35.2199C155.648 35.3919 155.568 35.4778 155.407 35.4778ZM155.459 23.4419C155.677 23.6483 155.785 23.9119 155.785 24.2329C155.785 24.5538 155.677 24.8232 155.459 25.041C155.252 25.2588 154.989 25.3677 154.668 25.3677C154.347 25.3677 154.077 25.2588 153.86 25.041C153.642 24.8232 153.533 24.5538 153.533 24.2329C153.533 23.9119 153.642 23.6483 153.86 23.4419C154.077 23.2241 154.347 23.1152 154.668 23.1152C154.989 23.1152 155.252 23.2241 155.459 23.4419Z" fill="#783E33"/>
<path d="M159.537 35.4778H158.058C157.886 35.4778 157.8 35.3919 157.8 35.2199V27.345C157.8 27.196 157.863 27.0928 157.989 27.0355C159.021 26.5885 160.162 26.3649 161.411 26.3649C162.661 26.3649 163.635 26.6802 164.334 27.3106C165.045 27.9296 165.4 28.8982 165.4 30.2164V35.2199C165.4 35.3919 165.32 35.4778 165.159 35.4778H163.664C163.492 35.4778 163.406 35.3919 163.406 35.2199V30.2508C163.406 29.4828 163.239 28.9441 162.907 28.6346C162.575 28.3136 162.076 28.1531 161.411 28.1531C160.815 28.1531 160.276 28.2162 159.795 28.3423V35.2199C159.795 35.3919 159.709 35.4778 159.537 35.4778Z" fill="#783E33"/>
<path d="M174.694 29.8897V31.6263C174.694 31.7868 174.608 31.8671 174.436 31.8671H169.209V32.3485C169.209 32.8643 169.37 33.2598 169.691 33.5349C170.023 33.7985 170.47 33.9304 171.032 33.9304C171.868 33.9304 172.677 33.6667 173.456 33.1394C173.594 33.0477 173.708 33.0649 173.8 33.191L174.505 34.1367C174.62 34.2628 174.602 34.3831 174.453 34.4978C173.456 35.2887 172.293 35.6842 170.963 35.6842C169.908 35.6842 169.014 35.3976 168.281 34.8245C167.558 34.2399 167.197 33.4088 167.197 32.3313V29.8897C167.197 28.7091 167.564 27.8264 168.298 27.2418C169.031 26.6572 169.925 26.3649 170.98 26.3649C172.023 26.3649 172.9 26.6572 173.611 27.2418C174.333 27.8264 174.694 28.7091 174.694 29.8897ZM172.751 29.8725C172.751 29.2765 172.585 28.8352 172.252 28.5486C171.92 28.262 171.496 28.1187 170.98 28.1187C169.799 28.1187 169.209 28.7033 169.209 29.8725V30.3196H172.751V29.8725Z" fill="#783E33"/>
<circle cx="26.9255" cy="27.4167" r="22.9255" fill="url(#paint0_radial_1_331)"/>
<g filter="url(#filter0_f_1_331)">
<ellipse cx="12.201" cy="23.3162" rx="5.96437" ry="6.8963" fill="#E1AE96"/>
</g>
<g filter="url(#filter1_f_1_331)">
<ellipse cx="33.6931" cy="13.9596" rx="5.96437" ry="11.072" transform="rotate(-57.6844 33.6931 13.9596)" fill="#E1AE96"/>
</g>
<g filter="url(#filter2_f_1_331)">
<ellipse cx="41.2239" cy="24.8987" rx="2.26677" ry="4.61639" transform="rotate(-10.0048 41.2239 24.8987)" fill="#E1AE96"/>
</g>
<path d="M14.2513 51.0877L4.80299 13.194L22.7264 8.71853C25.9581 7.95801 28.9838 7.99994 31.8033 8.8443C34.6229 9.68867 37.0147 11.271 38.9789 13.5911C40.96 15.9073 42.3614 18.7729 43.1829 22.1877L43.7413 24.5604C44.5659 28.0643 44.608 31.2946 43.8677 34.2512C43.1444 37.2038 41.6902 39.6822 39.5051 41.6864C37.337 43.6865 34.59 45.0959 31.2643 45.9144L14.2513 51.0877ZM9.30369 16.1984L16.1544 45.3095L30.092 41.9628C33.868 41.0742 39.1784 38.6436 40.7181 35.804C42.2749 32.9605 42.5429 29.37 41.5222 25.0327L41.0119 22.864C40.0192 18.6458 36.7469 16.0575 34.2084 14.1956C31.683 12.3127 27.4506 11.8971 23.8026 12.7197L9.30369 16.1984Z" fill="url(#paint1_linear_1_331)"/>
<path d="M14.0434 50.2245L6.42303 13.8103L23.1903 9.62391C26.3751 8.87443 29.355 8.90774 32.1299 9.72385C34.9048 10.54 37.2565 12.0765 39.1852 14.3335C41.1307 16.5865 42.5037 19.3766 43.3044 22.7035L43.8484 25.0153C44.6518 28.4291 44.6852 31.578 43.9487 34.4622C43.2289 37.3425 41.7905 39.7622 39.6333 41.7215C37.4929 43.6768 34.7839 45.0576 31.5063 45.8639L14.0434 50.2245ZM10.7099 17.3517L16.626 45.3119L30.3616 42.0145C34.0829 41.1388 39.3191 38.756 40.8427 35.984C42.3831 33.2079 42.6561 29.707 41.6616 25.4812L41.1644 23.3683C40.1972 19.2585 37.0629 16.1423 34.5674 14.3335C32.0848 12.5042 27.8352 12.7108 24.2403 13.5218L10.7099 17.3517Z" fill="#8C8A89"/>
<path d="M14.2513 51.0878L6.23664 13.6241L23.4327 9.46438C26.6645 8.70386 29.6901 8.74579 32.5096 9.59015C35.3292 10.4345 37.721 12.0168 39.6852 14.337C41.6663 16.6532 43.0677 19.5187 43.8893 22.9335L44.4476 25.3063C45.2722 28.8102 45.3143 32.0404 44.574 34.997C43.8507 37.9497 42.3965 40.4281 40.2114 42.4322C38.0433 44.4324 35.2964 45.8417 31.9706 46.6603L14.2513 51.0878ZM9.77799 16.4199L16.8607 46.0553L30.7983 42.7087C34.5743 41.8201 38.3779 39.8413 39.9177 37.0017C41.4744 34.1581 41.7424 30.5677 40.7217 26.2304L40.2114 24.0617C39.2187 19.8435 37.4532 16.8034 34.9147 14.9414C32.3893 13.0585 27.9249 12.1186 24.2769 12.9411L9.77799 16.4199Z" fill="url(#paint2_radial_1_331)"/>
<path d="M18.6487 42.0709L13.3183 19.4198L24.1389 16.7163C26.09 16.2572 27.9177 16.2868 29.622 16.8052C31.3263 17.3236 32.7732 18.2911 33.9627 19.7077C35.1626 21.122 36.0129 22.8702 36.5137 24.9524L36.8542 26.3992C37.357 28.5357 37.3868 30.5044 36.9436 32.3053C36.5106 34.1038 35.6355 35.6123 34.3183 36.8307C33.0114 38.0468 31.354 38.902 29.3461 39.3964L18.6487 42.0709ZM16.041 21.2569L20.2182 39.0075L28.6327 36.9866C30.9124 36.4501 33.2073 35.2493 34.1336 33.5208C35.0701 31.7899 35.2272 29.6021 34.6048 26.9574L34.2937 25.6351C33.6884 23.063 32.6178 21.2078 31.082 20.0697C29.5539 18.9188 26.9968 18.6598 24.7944 19.1562L16.041 21.2569Z" fill="url(#paint3_linear_1_331)"/>
<path d="M18.3518 44.3776L12.4981 19.3914L24.9478 16.2871C27.1924 15.7589 29.2909 15.7757 31.2434 16.3375C33.1959 16.8993 34.8489 17.9631 36.2024 19.5291C37.5677 21.0923 38.5287 23.0302 39.0854 25.343L39.4636 26.95C40.022 29.3231 40.0388 31.5136 39.5139 33.5216C39.0008 35.5268 37.9826 37.2132 36.4592 38.5808C34.9476 39.9457 33.0368 40.912 30.7268 41.48L18.3518 44.3776ZM14.9968 20.5202L19.8429 41.2091L29.9289 38.8046C32.5515 38.1874 35.1974 36.8308 36.2764 34.8991C37.3671 32.9646 37.5669 30.5286 36.8756 27.591L36.5299 26.1222C35.8576 23.2653 34.8298 20.8412 33.0762 19.5883C31.3318 18.321 27.7859 17.1641 25.2524 17.736L14.9968 20.5202Z" fill="#704F38"/>
<path d="M18.1654 43.8187L12.2399 18.7068L24.3791 15.6757C26.5678 15.1606 28.617 15.189 30.5267 15.7608C32.4363 16.3327 34.0563 17.4044 35.3865 18.9758C36.7283 20.5445 37.6774 22.4852 38.2338 24.798L38.612 26.405C39.1705 28.7782 39.199 30.9659 38.6976 32.9684C38.2078 34.9681 37.2228 36.6467 35.7429 38.0041C34.2745 39.3587 32.4141 40.3133 30.1616 40.8677L18.1654 43.8187ZM15.2881 20.7416L19.928 40.4579L29.3676 38.1913C31.925 37.5895 34.5011 36.2493 35.544 34.3261C36.5983 32.4002 36.7799 29.9685 36.0886 27.0309L35.7429 25.5621C35.0706 22.7052 33.8748 20.6462 32.1556 19.3852C30.4452 18.1099 27.5786 17.8284 25.108 18.3855L15.2881 20.7416Z" fill="url(#paint4_radial_1_331)"/>
</g>
<defs>
<filter id="filter0_f_1_331" x="0.236633" y="10.4199" width="23.9287" height="25.7925" filterUnits="userSpaceOnUse" color-interpolation-filters="sRGB">
<feFlood flood-opacity="0" result="BackgroundImageFix"/>
<feBlend mode="normal" in="SourceGraphic" in2="BackgroundImageFix" result="shape"/>
<feGaussianBlur stdDeviation="3" result="effect1_foregroundBlur_1_331"/>
</filter>
<filter id="filter1_f_1_331" x="17.805" y="0.185059" width="31.7762" height="27.5491" filterUnits="userSpaceOnUse" color-interpolation-filters="sRGB">
<feFlood flood-opacity="0" result="BackgroundImageFix"/>
<feBlend mode="normal" in="SourceGraphic" in2="BackgroundImageFix" result="shape"/>
<feGaussianBlur stdDeviation="3" result="effect1_foregroundBlur_1_331"/>
</filter>
<filter id="filter2_f_1_331" x="32.8512" y="14.3352" width="16.7453" height="21.127" filterUnits="userSpaceOnUse" color-interpolation-filters="sRGB">
<feFlood flood-opacity="0" result="BackgroundImageFix"/>
<feBlend mode="normal" in="SourceGraphic" in2="BackgroundImageFix" result="shape"/>
<feGaussianBlur stdDeviation="3" result="effect1_foregroundBlur_1_331"/>
</filter>
<radialGradient id="paint0_radial_1_331" cx="0" cy="0" r="1" gradientUnits="userSpaceOnUse" gradientTransform="translate(24.1297 22.9435) rotate(84.1737) scale(27.5411)">
<stop stop-color="#EECFC2"/>
<stop offset="0.378125" stop-color="#9E471F"/>
<stop offset="1" stop-color="#973C12"/>
</radialGradient>
<linearGradient id="paint1_linear_1_331" x1="4.74554" y1="13.4377" x2="37.9223" y2="44.1914" gradientUnits="userSpaceOnUse">
<stop stop-color="#B6B6B6"/>
<stop offset="1" stop-color="#696969"/>
</linearGradient>
<radialGradient id="paint2_radial_1_331" cx="0" cy="0" r="1" gradientUnits="userSpaceOnUse" gradientTransform="translate(6.7958 -7.99675) rotate(65.8874) scale(60.3033 55.4145)">
<stop stop-color="white"/>
<stop offset="0.808045" stop-color="white"/>
<stop offset="0.851804" stop-color="#ABB8BF"/>
<stop offset="0.923181" stop-color="#868C91"/>
<stop offset="0.973609" stop-color="white"/>
</radialGradient>
<linearGradient id="paint3_linear_1_331" x1="14.4376" y1="20.334" x2="35.3129" y2="35.6177" gradientUnits="userSpaceOnUse">
<stop stop-color="#969897"/>
<stop offset="1" stop-color="#2F2E2E"/>
</linearGradient>
<radialGradient id="paint4_radial_1_331" cx="0" cy="0" r="1" gradientUnits="userSpaceOnUse" gradientTransform="translate(13.1112 3.8496) rotate(65.8874) scale(40.8422 37.5311)">
<stop stop-color="white"/>
<stop offset="0.878125" stop-color="white"/>
<stop offset="0.95625" stop-color="#ABB8BF"/>
</radialGradient>
</defs>
</svg>
