<svg width="88" height="88" viewBox="0 0 88 88" fill="none" xmlns="http://www.w3.org/2000/svg">
<circle cx="44" cy="44" r="44" fill="url(#paint0_linear_1_266)"/>
<path d="M74.6313 13.9783C74.6027 13.8401 74.5354 13.7129 74.4372 13.6116C74.3389 13.5103 74.2138 13.4391 74.0766 13.4064C64.925 11.1689 43.7797 19.1423 32.3235 30.5939C30.2801 32.6207 28.4174 34.8217 26.7563 37.172C23.2235 36.8595 19.6906 37.1205 16.6797 38.433C8.18439 42.172 5.71095 51.9283 5.02189 56.1251C4.98281 56.3549 4.99755 56.5905 5.06496 56.8135C5.13237 57.0366 5.25061 57.241 5.41038 57.4106C5.57015 57.5802 5.76709 57.7104 5.98572 57.791C6.20434 57.8716 6.43869 57.9004 6.67033 57.8751L20.3125 56.3705C20.3223 57.399 20.3843 58.4263 20.4985 59.4486C20.5671 60.1584 20.8822 60.8218 21.3891 61.3236L26.6719 66.5939C27.1741 67.1001 27.8372 67.4151 28.5469 67.4845C29.5634 67.5982 30.585 67.6603 31.6078 67.6705L30.111 81.2954C30.086 81.527 30.115 81.7612 30.1957 81.9797C30.2764 82.1982 30.4067 82.395 30.5762 82.5546C30.7458 82.7143 30.95 82.8326 31.1729 82.9001C31.3958 82.9677 31.6313 82.9826 31.861 82.9439C36.05 82.272 45.8235 79.7986 49.5406 71.3033C50.8531 68.2923 51.1219 64.7767 50.8188 61.2611C53.1747 59.5999 55.3815 57.7366 57.4141 55.6923C68.9063 44.258 76.8344 23.5845 74.6313 13.9783ZM45.9485 42.0517C44.8991 41.003 44.1843 39.6666 43.8945 38.2116C43.6047 36.7567 43.7529 35.2484 44.3204 33.8777C44.888 32.5069 45.8493 31.3353 47.0827 30.511C48.3162 29.6867 49.7664 29.2467 51.25 29.2467C52.7336 29.2467 54.1838 29.6867 55.4173 30.511C56.6508 31.3353 57.6121 32.5069 58.1796 33.8777C58.7471 35.2484 58.8953 36.7567 58.6055 38.2116C58.3158 39.6666 57.601 41.003 56.5516 42.0517C55.8557 42.7486 55.0293 43.3014 54.1196 43.6786C53.2099 44.0558 52.2348 44.2499 51.25 44.2499C50.2652 44.2499 49.2901 44.0558 48.3804 43.6786C47.4707 43.3014 46.6443 42.7486 45.9485 42.0517Z" fill="#1B567C"/>
<path d="M26.3125 70.4109C25.4562 71.2688 24.0828 71.6031 22.4297 71.8891C18.7156 72.5219 15.4359 69.3125 16.1031 65.5578C16.3578 64.1344 17.1109 62.1391 17.5797 61.6703C17.6821 61.5698 17.7503 61.4396 17.7746 61.2982C17.7988 61.1568 17.7779 61.0113 17.7148 60.8824C17.6516 60.7535 17.5495 60.6478 17.4229 60.5803C17.2962 60.5128 17.1516 60.4869 17.0094 60.5063C14.9324 60.7604 13.0002 61.702 11.5203 63.1813C7.84688 66.8578 7.5 80.5 7.5 80.5C7.5 80.5 21.15 80.1531 24.8234 76.4766C26.3073 74.9979 27.2501 73.0627 27.5 70.9828C27.5578 70.3297 26.7625 69.9406 26.3125 70.4109Z" fill="#1B567C"/>
<defs>
<linearGradient id="paint0_linear_1_266" x1="44" y1="0" x2="44" y2="88" gradientUnits="userSpaceOnUse">
<stop stop-color="#67A8D2" stop-opacity="0.88"/>
<stop offset="1" stop-color="#67A8D2" stop-opacity="0"/>
</linearGradient>
</defs>
</svg>
