<svg width="19" height="19" viewBox="0 0 19 19" fill="none" xmlns="http://www.w3.org/2000/svg">
<g opacity="0.7">
<path d="M16.625 3.5625H2.37499C2.06005 3.5625 1.758 3.68761 1.5353 3.91031C1.3126 4.13301 1.18749 4.43506 1.18749 4.75V14.25C1.18749 14.5649 1.3126 14.867 1.5353 15.0897C1.758 15.3124 2.06005 15.4375 2.37499 15.4375H16.625C16.9399 15.4375 17.242 15.3124 17.4647 15.0897C17.6874 14.867 17.8125 14.5649 17.8125 14.25V4.75C17.8125 4.43506 17.6874 4.13301 17.4647 3.91031C17.242 3.68761 16.9399 3.5625 16.625 3.5625V3.5625ZM15.3187 4.75L9.49999 8.77563L3.68124 4.75H15.3187ZM2.37499 14.25V5.29031L9.16155 9.98688C9.26095 10.0558 9.37903 10.0928 9.49999 10.0928C9.62096 10.0928 9.73904 10.0558 9.83843 9.98688L16.625 5.29031V14.25H2.37499Z" fill="white"/>
</g>
</svg>
