<svg width="18" height="18" viewBox="0 0 18 18" fill="none" xmlns="http://www.w3.org/2000/svg">
<g opacity="0.7">
<path d="M13.865 17.7201C13.6969 17.7196 13.5292 17.7012 13.365 17.6651C10.2383 17.0183 7.35782 15.5018 5.05501 13.2901C2.80134 11.0735 1.23831 8.2514 0.555009 5.1651C0.47444 4.78046 0.494215 4.38155 0.612431 4.00676C0.730648 3.63197 0.943328 3.29391 1.23001 3.0251L3.23001 1.1001C3.33216 1.0035 3.45354 0.929517 3.58622 0.882993C3.7189 0.836469 3.85989 0.818447 4.00001 0.830102C4.14529 0.845258 4.28549 0.892059 4.41074 0.967211C4.536 1.04236 4.64327 1.14404 4.72501 1.2651L7.22501 4.9601C7.31876 5.10347 7.36402 5.27315 7.35412 5.44417C7.34421 5.61518 7.27968 5.77851 7.17001 5.9101L5.91501 7.4101C6.41484 8.51633 7.12268 9.51614 8.00001 10.3551C8.87166 11.2245 9.90193 11.9187 11.035 12.4001L12.59 11.1651C12.7206 11.0619 12.8795 11.0009 13.0457 10.9901C13.2118 10.9794 13.3772 11.0195 13.52 11.1051L17.295 13.5451C17.4246 13.6224 17.5349 13.7281 17.6178 13.8542C17.7007 13.9802 17.7541 14.1234 17.7738 14.273C17.7935 14.4226 17.7791 14.5747 17.7317 14.7179C17.6843 14.8612 17.6051 14.9918 17.5 15.1001L15.55 17.0301C15.3285 17.2505 15.0656 17.425 14.7764 17.5434C14.4872 17.6618 14.1775 17.7219 13.865 17.7201V17.7201ZM3.92001 1.8201L1.92001 3.7451C1.75874 3.89538 1.63935 4.08504 1.5736 4.29544C1.50785 4.50584 1.498 4.72974 1.54501 4.9451C2.18037 7.84117 3.64087 10.4913 5.75001 12.5751C7.91711 14.6559 10.6278 16.0823 13.57 16.6901C13.7927 16.7367 14.0235 16.7272 14.2416 16.6627C14.4598 16.5981 14.6585 16.4804 14.82 16.3201L16.77 14.3901L13.125 12.0351L11.455 13.3651C11.3911 13.4157 11.3157 13.4499 11.2356 13.4647C11.1554 13.4795 11.0728 13.4745 10.995 13.4501C9.60836 12.9392 8.35174 12.1282 7.31501 11.0751C6.24269 10.0737 5.41032 8.84311 4.88001 7.4751C4.85757 7.39228 4.85683 7.30509 4.87785 7.2219C4.89886 7.13871 4.94093 7.06233 5.00001 7.0001L6.35001 5.3851L3.92001 1.8201Z" fill="white"/>
</g>
</svg>
